<?xml version="1.0" encoding="utf-8"?>
<!-- Generator: Adobe Illustrator 18.1.1, SVG Export Plug-In . SVG Version: 6.00 Build 0)  -->
<svg version="1.1" id="Layer_1" xmlns="http://www.w3.org/2000/svg" xmlns:xlink="http://www.w3.org/1999/xlink" x="0px" y="0px"
	 viewBox="0 0 179 103.3" enable-background="new 0 0 179 103.3" xml:space="preserve">
<path fill="#000111" d="M16.3,0.1c3.2,0,6.1,0.7,8.5,2.2c2.4,1.5,4.3,3.6,5.7,6.3c1.3,2.7,2,6.1,2,10c0,3.8-0.7,7.1-2.1,10
	c-1.4,2.9-3.3,5.1-5.7,6.7c-2.4,1.6-5.2,2.4-8.4,2.4c-3.2,0-6.1-0.7-8.5-2.2c-2.4-1.5-4.3-3.6-5.7-6.3c-1.3-2.8-2-6.1-2-9.9
	c0-3.8,0.7-7.1,2.1-10c1.4-2.9,3.3-5.1,5.7-6.7C10.3,0.9,13.1,0.1,16.3,0.1z M16.1,1c-2.2,0-4.1,0.8-5.8,2.3
	C8.7,4.8,7.4,6.9,6.5,9.6c-0.9,2.7-1.3,5.8-1.3,9.3c0,3.6,0.5,6.7,1.5,9.4c1,2.7,2.4,4.7,4.1,6.2c1.7,1.4,3.6,2.2,5.7,2.2
	c2.2,0,4.1-0.8,5.8-2.3s2.9-3.6,3.8-6.3c0.9-2.7,1.3-5.8,1.3-9.3c0-3.6-0.5-6.8-1.5-9.4c-1-2.7-2.4-4.7-4-6.1
	C20.1,1.7,18.2,1,16.1,1z"/>
<path fill="#000111" d="M49.9,0.8c0.7,0,1.6,0.1,2.8,0.1c1.2,0,2.3,0.1,3.4,0.1c1.6,0,3.1,0,4.6-0.1c1.5,0,2.5-0.1,3.1-0.1
	c4.1,0,7.2,0.9,9.2,2.8c2,1.9,3.1,4.3,3.1,7.2c0,1.2-0.2,2.5-0.6,3.9c-0.4,1.3-1.1,2.6-2.1,3.7c-1,1.1-2.4,2.1-4.1,2.8
	c-1.7,0.7-3.9,1.1-6.6,1.1h-4.9v-1h4.4c2.4,0,4.3-0.5,5.5-1.4s2.1-2.1,2.6-3.6c0.5-1.5,0.7-3.1,0.7-4.8c0-3.2-0.6-5.6-1.9-7.2
	c-1.3-1.6-3.5-2.4-6.5-2.4c-1.6,0-2.6,0.3-3.1,0.9c-0.5,0.6-0.7,1.8-0.7,3.5v25.3c0,1.2,0.1,2.1,0.4,2.8c0.3,0.6,0.8,1,1.5,1.2
	c0.7,0.2,1.8,0.3,3.3,0.4v1c-0.9-0.1-2-0.1-3.4-0.1c-1.4,0-2.7,0-4.1,0c-1.3,0-2.6,0-3.7,0c-1.2,0-2.1,0.1-2.8,0.1v-1
	c1.2-0.1,2-0.2,2.6-0.4c0.6-0.2,1-0.6,1.2-1.2c0.2-0.6,0.3-1.5,0.3-2.8V6.2c0-1.3-0.1-2.2-0.3-2.8c-0.2-0.6-0.6-1-1.2-1.2
	C52,2,51.1,1.8,49.9,1.8V0.8z"/>
<path fill="#000111" d="M91,9.9c2.2,0,4.1,0.5,5.9,1.4c1.7,1,3.1,2.4,4.2,4.5c1,2,1.6,4.7,1.6,8s-0.5,5.9-1.6,7.9
	c-1,2-2.4,3.5-4.2,4.5c-1.7,1-3.7,1.4-5.9,1.4c-2.1,0-4.1-0.5-5.8-1.4c-1.7-1-3.1-2.4-4.2-4.5c-1-2-1.6-4.7-1.6-7.9s0.5-5.9,1.6-8
	c1-2,2.4-3.5,4.2-4.5C86.9,10.4,88.9,9.9,91,9.9z M91,10.9c-1.9,0-3.5,1-4.8,3c-1.2,2-1.9,5.3-1.9,9.8c0,4.6,0.6,7.8,1.9,9.8
	c1.2,2,2.8,3,4.8,3s3.5-1,4.8-3c1.2-2,1.9-5.3,1.9-9.8c0-4.6-0.6-7.8-1.9-9.8C94.5,11.9,92.9,10.9,91,10.9z"/>
<path fill="#000111" d="M123.5,9.9c1.3,0,2.4,0.2,3.2,0.5c0.9,0.3,1.6,0.8,2.2,1.4c0.6,0.7,1.1,1.5,1.4,2.5c0.3,1,0.4,2.4,0.4,4.1
	v13.6c0,1.4,0.3,2.4,0.9,2.9c0.6,0.5,1.6,0.8,3,0.8v1.1c-0.6,0-1.5-0.1-2.6-0.1c-1.2-0.1-2.3-0.1-3.5-0.1c-1.1,0-2.2,0-3.3,0.1
	c-1.1,0.1-1.9,0.1-2.4,0.1v-1.1c1.2,0,2.1-0.3,2.6-0.8c0.5-0.5,0.8-1.5,0.8-2.9V17.4c0-1.1-0.1-2-0.3-2.9c-0.2-0.9-0.6-1.6-1.1-2.1
	c-0.6-0.5-1.5-0.8-2.7-0.8c-2.1,0-3.9,0.9-5.2,2.7c-1.3,1.8-2,4-2,6.6v11.3c0,1.4,0.3,2.4,0.8,2.9c0.5,0.5,1.4,0.8,2.6,0.8v1.1
	c-0.5,0-1.3-0.1-2.4-0.1c-1.1-0.1-2.2-0.1-3.3-0.1c-1.1,0-2.3,0-3.5,0.1c-1.2,0.1-2.1,0.1-2.6,0.1v-1.1c1.4,0,2.4-0.3,3-0.8
	c0.6-0.5,0.9-1.5,0.9-2.9v-16c0-1.5-0.3-2.7-0.8-3.4c-0.5-0.7-1.6-1.1-3.1-1.1v-1.1c1.1,0.1,2.1,0.2,3.2,0.2c1,0,1.9-0.1,2.8-0.2
	c0.9-0.1,1.7-0.3,2.5-0.5v6c0.9-2.3,2.1-3.9,3.7-4.8C120.2,10.4,121.8,9.9,123.5,9.9z"/>
<path fill="#000111" d="M145,2.2v8.5h7.5v1H145v19.7c0,1.6,0.3,2.7,0.9,3.4c0.6,0.6,1.4,1,2.4,1s1.9-0.4,2.6-1.2
	c0.7-0.8,1.4-2.2,1.9-4.2l1,0.3c-0.3,2-1,3.6-2,5c-1,1.4-2.5,2-4.6,2c-1.2,0-2.1-0.1-2.9-0.4c-0.7-0.3-1.4-0.7-2-1.2
	c-0.7-0.8-1.3-1.7-1.6-2.8c-0.3-1.1-0.4-2.5-0.4-4.3V11.7h-4.9v-1h4.9V2.9c0.8,0,1.7-0.1,2.4-0.2C143.7,2.6,144.4,2.4,145,2.2z"/>
<path fill="#000111" d="M167.3,9.9c2.2,0,4.1,0.5,5.9,1.4c1.7,1,3.1,2.4,4.2,4.5s1.6,4.7,1.6,8s-0.5,5.9-1.6,7.9
	c-1,2-2.4,3.5-4.2,4.5c-1.7,1-3.7,1.4-5.9,1.4c-2.1,0-4.1-0.5-5.8-1.4c-1.7-1-3.1-2.4-4.2-4.5c-1-2-1.6-4.7-1.6-7.9s0.5-5.9,1.6-8
	c1-2,2.4-3.5,4.2-4.5C163.3,10.4,165.2,9.9,167.3,9.9z M167.3,10.9c-1.9,0-3.5,1-4.8,3c-1.2,2-1.9,5.3-1.9,9.8
	c0,4.6,0.6,7.8,1.9,9.8c1.2,2,2.8,3,4.8,3s3.5-1,4.8-3c1.2-2,1.9-5.3,1.9-9.8c0-4.6-0.6-7.8-1.9-9.8
	C170.9,11.9,169.3,10.9,167.3,10.9z"/>
<path fill="#000111" d="M18.4,57.5v1c-1.2,0-2,0.2-2.6,0.4c-0.6,0.2-1,0.6-1.2,1.2c-0.2,0.6-0.3,1.5-0.3,2.8v25.3
	c0,1.2,0.1,2.1,0.3,2.8c0.2,0.6,0.6,1,1.2,1.2c0.6,0.2,1.5,0.3,2.6,0.3h3.7c2.1,0,3.8-0.3,4.9-0.9c1.1-0.6,1.9-1.6,2.4-3
	c0.5-1.4,0.9-3.3,1.1-5.6h1.2c-0.1,1.1-0.2,2.4-0.2,4.2c0,0.6,0,1.6,0.1,2.8c0.1,1.2,0.1,2.5,0.3,3.7c-1.7-0.1-3.7-0.1-5.9-0.1
	c-2.2,0-4.1,0-5.8,0c-1,0-2.4,0-4,0s-3.5,0-5.4,0c-1.9,0-3.7,0.1-5.3,0.1v-1c1.2-0.1,2-0.2,2.6-0.4C8.6,92,9,91.6,9.3,91
	c0.2-0.6,0.3-1.5,0.3-2.8V62.9c0-1.3-0.1-2.2-0.3-2.8c-0.2-0.6-0.6-1-1.2-1.2c-0.6-0.2-1.5-0.3-2.6-0.4v-1c0.7,0,1.6,0.1,2.8,0.1
	c1.2,0,2.4,0.1,3.7,0.1c1.2,0,2.4,0,3.5-0.1C16.7,57.6,17.6,57.5,18.4,57.5z"/>
<path fill="#000111" d="M41.5,94c-2.2,0-3.8-0.6-4.8-1.7c-1-1.1-1.5-2.6-1.5-4.4c0-1.4,0.3-2.6,1-3.5c0.7-0.9,1.6-1.7,2.7-2.3
	c1.1-0.6,2.2-1.1,3.4-1.5c1.2-0.4,2.4-0.8,3.4-1.2c1.1-0.4,2-0.9,2.7-1.4c0.7-0.5,1-1.2,1-1.9v-3.2c0-1.4-0.2-2.5-0.6-3.3
	c-0.4-0.7-1-1.2-1.7-1.5c-0.7-0.3-1.5-0.4-2.4-0.4c-0.8,0-1.8,0.1-2.7,0.4c-1,0.2-1.7,0.7-2.3,1.5c0.6,0.1,1.2,0.5,1.7,1
	c0.5,0.5,0.7,1.2,0.7,2.1c0,0.9-0.3,1.5-0.8,2c-0.5,0.5-1.2,0.7-2.1,0.7c-1,0-1.7-0.3-2.2-0.9c-0.5-0.6-0.7-1.3-0.7-2.1
	c0-0.9,0.2-1.6,0.7-2.1c0.4-0.5,1-1.1,1.7-1.5c0.8-0.5,1.8-1,3-1.4c1.2-0.4,2.6-0.6,4.2-0.6c1.4,0,2.6,0.2,3.6,0.5
	c1,0.3,1.8,0.8,2.4,1.4c0.9,0.8,1.5,1.8,1.7,3c0.3,1.2,0.4,2.6,0.4,4.2v14.2c0,0.8,0.1,1.4,0.4,1.8c0.2,0.4,0.6,0.6,1.2,0.6
	c0.5,0,0.9-0.1,1.2-0.3c0.4-0.2,0.7-0.5,1-0.8l0.6,0.9c-0.7,0.5-1.4,1-2,1.4C55.9,93.8,55,94,53.9,94c-1.8,0-2.9-0.5-3.5-1.4
	c-0.6-0.9-0.9-2-0.9-3.2c-1.1,1.8-2.3,3-3.7,3.6S43,94,41.5,94z M43.8,91.9c1,0,2-0.3,3-0.9c1-0.6,1.9-1.6,2.8-3V78
	c-0.5,0.7-1.3,1.3-2.4,1.8c-1.1,0.4-2.2,0.9-3.3,1.5c-1.1,0.5-2.1,1.2-2.9,2.1s-1.2,2.2-1.2,3.9c0,1.6,0.4,2.7,1.2,3.5
	C41.7,91.5,42.6,91.9,43.8,91.9z"/>
<path fill="#000111" d="M75.9,66.6c0.9,0,1.7,0.2,2.4,0.6c0.7,0.4,1.2,0.9,1.6,1.5c0.4,0.6,0.6,1.3,0.6,2c0,0.9-0.3,1.6-0.8,2.2
	c-0.5,0.6-1.2,1-2.1,1c-0.7,0-1.3-0.2-1.9-0.7c-0.5-0.5-0.8-1.1-0.8-2c0-0.6,0.2-1.2,0.5-1.7c0.4-0.5,0.8-0.8,1.2-1.1
	c-0.2-0.3-0.6-0.5-1.1-0.5c-1.4,0-2.7,0.5-3.7,1.6c-1.1,1.1-1.9,2.4-2.5,3.9c-0.6,1.5-0.9,2.9-0.9,4.1v10.8c0,1.7,0.5,2.8,1.5,3.3
	c1,0.6,2.3,0.8,3.9,0.8v1.1c-0.8,0-1.9-0.1-3.3-0.1c-1.4-0.1-2.9-0.1-4.5-0.1c-1.2,0-2.3,0-3.4,0.1c-1.1,0.1-2,0.1-2.6,0.1v-1.1
	c1.4,0,2.4-0.3,3-0.8c0.6-0.5,0.9-1.5,0.9-2.9v-16c0-1.5-0.3-2.7-0.8-3.4c-0.5-0.7-1.6-1.1-3.1-1.1v-1.1c1.1,0.1,2.1,0.2,3.2,0.2
	c1,0,1.9-0.1,2.8-0.2c0.9-0.1,1.7-0.3,2.5-0.5v6.4c0.4-1,0.9-2,1.6-3c0.7-1,1.5-1.8,2.5-2.5C73.6,67,74.7,66.6,75.9,66.6z"/>
<path fill="#000111" d="M89.6,94c-2.2,0-3.8-0.6-4.8-1.7c-1-1.1-1.5-2.6-1.5-4.4c0-1.4,0.3-2.6,1-3.5c0.7-0.9,1.6-1.7,2.7-2.3
	c1.1-0.6,2.2-1.1,3.4-1.5c1.2-0.4,2.4-0.8,3.4-1.2c1.1-0.4,2-0.9,2.7-1.4c0.7-0.5,1-1.2,1-1.9v-3.2c0-1.4-0.2-2.5-0.6-3.3
	c-0.4-0.7-1-1.2-1.7-1.5c-0.7-0.3-1.5-0.4-2.4-0.4c-0.8,0-1.8,0.1-2.7,0.4c-1,0.2-1.7,0.7-2.3,1.5c0.6,0.1,1.2,0.5,1.7,1
	c0.5,0.5,0.7,1.2,0.7,2.1c0,0.9-0.3,1.5-0.8,2c-0.5,0.5-1.2,0.7-2.1,0.7c-1,0-1.7-0.3-2.2-0.9c-0.5-0.6-0.7-1.3-0.7-2.1
	c0-0.9,0.2-1.6,0.7-2.1c0.4-0.5,1-1.1,1.7-1.5c0.8-0.5,1.8-1,3-1.4c1.2-0.4,2.6-0.6,4.2-0.6c1.4,0,2.6,0.2,3.6,0.5
	c1,0.3,1.8,0.8,2.4,1.4c0.9,0.8,1.5,1.8,1.7,3c0.3,1.2,0.4,2.6,0.4,4.2v14.2c0,0.8,0.1,1.4,0.4,1.8c0.2,0.4,0.6,0.6,1.2,0.6
	c0.5,0,0.9-0.1,1.2-0.3c0.4-0.2,0.7-0.5,1-0.8l0.6,0.9c-0.7,0.5-1.4,1-2,1.4c-0.6,0.4-1.5,0.5-2.6,0.5c-1.8,0-2.9-0.5-3.5-1.4
	c-0.6-0.9-0.9-2-0.9-3.2c-1.1,1.8-2.3,3-3.7,3.6S91.1,94,89.6,94z M91.8,91.9c1,0,2-0.3,3-0.9c1-0.6,1.9-1.6,2.8-3V78
	c-0.5,0.7-1.3,1.3-2.4,1.8c-1.1,0.4-2.2,0.9-3.3,1.5c-1.1,0.5-2.1,1.2-2.9,2.1s-1.2,2.2-1.2,3.9c0,1.6,0.4,2.7,1.2,3.5
	C89.7,91.5,90.7,91.9,91.8,91.9z"/>
<path fill="#000111" d="M125.2,66.6c1.3,0,2.4,0.2,3.2,0.5c0.9,0.3,1.6,0.8,2.2,1.4c0.6,0.7,1.1,1.5,1.4,2.5c0.3,1,0.4,2.4,0.4,4.1
	v13.6c0,1.4,0.3,2.4,0.9,2.9c0.6,0.5,1.6,0.8,3,0.8v1.1c-0.6,0-1.5-0.1-2.6-0.1c-1.2-0.1-2.3-0.1-3.5-0.1c-1.1,0-2.2,0-3.3,0.1
	c-1.1,0.1-1.9,0.1-2.4,0.1v-1.1c1.2,0,2.1-0.3,2.6-0.8c0.5-0.5,0.8-1.5,0.8-2.9V74.1c0-1.1-0.1-2-0.3-2.9c-0.2-0.9-0.6-1.6-1.1-2.1
	c-0.6-0.5-1.5-0.8-2.7-0.8c-2.1,0-3.9,0.9-5.2,2.7c-1.3,1.8-2,4-2,6.6v11.3c0,1.4,0.3,2.4,0.8,2.9c0.5,0.5,1.4,0.8,2.6,0.8v1.1
	c-0.5,0-1.3-0.1-2.4-0.1c-1.1-0.1-2.2-0.1-3.3-0.1c-1.1,0-2.3,0-3.5,0.1c-1.2,0.1-2.1,0.1-2.6,0.1v-1.1c1.4,0,2.4-0.3,3-0.8
	c0.6-0.5,0.9-1.5,0.9-2.9v-16c0-1.5-0.3-2.7-0.8-3.4c-0.5-0.7-1.6-1.1-3.1-1.1v-1.1c1.1,0.1,2.1,0.2,3.2,0.2c1,0,1.9-0.1,2.8-0.2
	c0.9-0.1,1.7-0.3,2.5-0.5v6c0.9-2.3,2.1-3.9,3.7-4.8C121.8,67.1,123.5,66.6,125.2,66.6z"/>
<path display="none" d="M135.7,107.7v-0.8c2.1-0.1,3.7-1,4.7-2.7c1.1-1.7,1.6-4.1,1.6-7.1V77.4c0-1.5-0.3-2.7-0.8-3.4
	c-0.5-0.7-1.6-1.1-3.1-1.1v-1.1c1.1,0.1,2.1,0.2,3.2,0.2c1,0,1.9-0.1,2.8-0.2c0.9-0.1,1.7-0.3,2.5-0.5v21c0,2.6-0.3,4.9-0.8,7
	c-0.6,2.1-1.5,3.9-2.8,5.3c-0.8,0.9-1.9,1.7-3.1,2.2C138.6,107.4,137.2,107.7,135.7,107.7z M143.9,59.1c0.9,0,1.6,0.3,2.3,1
	c0.6,0.6,1,1.4,1,2.3c0,0.9-0.3,1.6-1,2.3c-0.6,0.6-1.4,1-2.3,1c-0.9,0-1.6-0.3-2.3-1c-0.6-0.6-1-1.4-1-2.3c0-0.9,0.3-1.6,1-2.3
	C142.2,59.4,143,59.1,143.9,59.1z"/>
<path fill="#000111" d="M158.9,94c-2.2,0-3.8-0.6-4.8-1.7c-1-1.1-1.5-2.6-1.5-4.4c0-1.4,0.3-2.6,1-3.5c0.7-0.9,1.6-1.7,2.7-2.3
	c1.1-0.6,2.2-1.1,3.4-1.5c1.2-0.4,2.4-0.8,3.4-1.2c1.1-0.4,2-0.9,2.7-1.4c0.7-0.5,1-1.2,1-1.9v-3.2c0-1.4-0.2-2.5-0.6-3.3
	c-0.4-0.7-1-1.2-1.7-1.5c-0.7-0.3-1.5-0.4-2.4-0.4c-0.8,0-1.8,0.1-2.7,0.4c-1,0.2-1.7,0.7-2.3,1.5c0.6,0.1,1.2,0.5,1.7,1
	c0.5,0.5,0.7,1.2,0.7,2.1c0,0.9-0.3,1.5-0.8,2c-0.5,0.5-1.2,0.7-2.1,0.7c-1,0-1.7-0.3-2.2-0.9c-0.5-0.6-0.7-1.3-0.7-2.1
	c0-0.9,0.2-1.6,0.7-2.1c0.4-0.5,1-1.1,1.7-1.5c0.8-0.5,1.8-1,3-1.4c1.2-0.4,2.6-0.6,4.2-0.6c1.4,0,2.6,0.2,3.6,0.5
	c1,0.3,1.8,0.8,2.4,1.4c0.9,0.8,1.5,1.8,1.7,3c0.3,1.2,0.4,2.6,0.4,4.2v14.2c0,0.8,0.1,1.4,0.4,1.8c0.2,0.4,0.6,0.6,1.2,0.6
	c0.5,0,0.9-0.1,1.2-0.3c0.4-0.2,0.7-0.5,1-0.8l0.6,0.9c-0.7,0.5-1.4,1-2,1.4c-0.6,0.4-1.5,0.5-2.6,0.5c-1.8,0-2.9-0.5-3.5-1.4
	c-0.6-0.9-0.9-2-0.9-3.2c-1.1,1.8-2.3,3-3.7,3.6S160.4,94,158.9,94z M161.2,91.9c1,0,2-0.3,3-0.9c1-0.6,1.9-1.6,2.8-3V78
	c-0.5,0.7-1.3,1.3-2.4,1.8c-1.1,0.4-2.2,0.9-3.3,1.5c-1.1,0.5-2.1,1.2-2.9,2.1s-1.2,2.2-1.2,3.9c0,1.6,0.4,2.7,1.2,3.5
	C159.1,91.5,160,91.9,161.2,91.9z"/>
<path fill="#000111" d="M135.7,103.2v-0.8c2.1-0.1,3.7-1,4.7-2.7c1.1-1.7,1.6-4.1,1.6-7.1V72.9c0-1.5-0.3-2.7-0.8-3.4
	c-0.5-0.7-1.6-1.1-3.1-1.1v-1.1c1.1,0.1,2.1,0.2,3.2,0.2c1,0,1.9-0.1,2.8-0.2c0.9-0.1,1.7-0.3,2.5-0.5v21c0,2.6-0.3,4.9-0.8,7
	c-0.6,2.1-1.5,3.9-2.8,5.3c-0.9,0.9-1.9,1.7-3.1,2.2S137.2,103.2,135.7,103.2z"/>
<path fill="#FA5C50" d="M143.2,47.2c2,0,3.8,0.7,5.3,2.2c1.5,1.5,2.2,3.2,2.2,5.3c0,2-0.7,3.8-2.2,5.3c-1.5,1.5-3.2,2.2-5.3,2.2
	c-2,0-3.8-0.7-5.3-2.2c-1.5-1.5-2.2-3.2-2.2-5.3c0-2,0.7-3.8,2.2-5.3C139.4,47.9,141.2,47.2,143.2,47.2z"/>
</svg>
