<svg xmlns="http://www.w3.org/2000/svg" xmlns:xlink="http://www.w3.org/1999/xlink" viewBox="0 0 367.2 56.3" xmlns:v="https://vecta.io/nano"><g fill="#000111"><path d="M16.3 9.8c3.2 0 6.1.7 8.5 2.2s4.3 3.6 5.7 6.3c1.3 2.7 2 6.1 2 10 0 3.8-.7 7.1-2.1 10s-3.3 5.1-5.7 6.7-5.3 2.4-8.4 2.4c-3.2 0-6.1-.7-8.5-2.2s-4.3-3.6-5.7-6.3C.8 36.1.1 32.8.1 29s.7-7.1 2.1-10 3.3-5.1 5.7-6.7c2.4-1.7 5.2-2.5 8.4-2.5zm-.2.9c-2.2 0-4.1.8-5.8 2.3-1.6 1.5-2.9 3.6-3.8 6.3s-1.4 5.8-1.4 9.3c0 3.6.5 6.7 1.5 9.4s2.4 4.7 4.1 6.2c1.7 1.4 3.6 2.2 5.7 2.2 2.2 0 4.1-.8 5.8-2.3 1.6-1.5 2.9-3.6 3.8-6.3s1.4-5.8 1.4-9.3c0-3.6-.5-6.8-1.5-9.4-1-2.7-2.4-4.7-4.1-6.1-1.7-1.5-3.6-2.3-5.7-2.3zm33.9-.2l2.8.1 3.4.1 4.6-.1 3.1-.1c4.1 0 7.2.9 9.2 2.8s3.1 4.3 3.1 7.2c0 1.2-.2 2.5-.6 3.9-.4 1.3-1.1 2.6-2.1 3.7s-2.4 2.1-4.1 2.8-3.9 1.1-6.6 1.1h-4.9v-1h4.4c2.4 0 4.3-.5 5.5-1.4 1.3-.9 2.1-2.1 2.6-3.6s.7-3.1.7-4.8c0-3.2-.6-5.6-1.9-7.2s-3.5-2.4-6.6-2.4c-1.6 0-2.6.3-3.1.9s-.7 1.8-.7 3.5v25.3c0 1.2.1 2.1.4 2.8.3.6.8 1 1.5 1.2s1.8.3 3.3.4v1c-.9-.1-2-.1-3.4-.1h-4.1-3.7l-2.8.1v-1c1.2-.1 2-.2 2.6-.4a1.8 1.8 0 0 0 1.2-1.2c.2-.6.3-1.5.3-2.8V15.9c0-1.3-.1-2.2-.3-2.8a1.8 1.8 0 0 0-1.2-1.2c-.6-.2-1.5-.3-2.6-.4v-1zm41.1 9.2c2.2 0 4.1.5 5.9 1.4 1.7 1 3.1 2.4 4.2 4.5 1 2 1.6 4.7 1.6 8s-.5 5.9-1.6 7.9c-1 2-2.4 3.5-4.2 4.5-1.7 1-3.7 1.4-5.9 1.4-2.1 0-4.1-.5-5.8-1.4-1.8-1-3.1-2.4-4.2-4.5-1-2-1.6-4.7-1.6-7.9 0-3.3.5-5.9 1.6-8 1-2 2.4-3.5 4.2-4.5 1.7-1 3.7-1.4 5.8-1.4zm0 1c-1.9 0-3.5 1-4.8 3-1.2 2-1.9 5.3-1.9 9.8 0 4.6.6 7.8 1.9 9.8 1.2 2 2.8 3 4.8 3s3.5-1 4.8-3c1.2-2 1.9-5.3 1.9-9.8 0-4.6-.6-7.8-1.9-9.8s-2.8-3-4.8-3z"/><use xlink:href="#B"/><path d="M145.2 11.9v8.5h7.5v1h-7.5v19.7c0 1.6.3 2.7.9 3.4a3.31 3.31 0 0 0 2.4 1c1 0 1.9-.4 2.7-1.2.7-.8 1.4-2.2 1.9-4.2l1 .3c-.3 2-1 3.6-2 5s-2.5 2-4.6 2c-1.2 0-2.1-.1-2.9-.4-.7-.3-1.4-.7-2-1.2-.7-.8-1.3-1.7-1.6-2.8s-.4-2.5-.4-4.3V21.4h-4.9v-1h4.9v-7.8c.8 0 1.7-.1 2.4-.2.9-.1 1.6-.3 2.2-.5zm22.4 7.8c2.2 0 4.1.5 5.9 1.4 1.7 1 3.1 2.4 4.2 4.5s1.6 4.7 1.6 8-.5 5.9-1.6 7.9-2.4 3.5-4.2 4.5-3.7 1.4-5.9 1.4c-2.1 0-4.1-.5-5.8-1.4-1.8-1-3.1-2.4-4.2-4.5s-1.6-4.7-1.6-7.9c0-3.3.5-5.9 1.6-8s2.4-3.5 4.2-4.5c1.7-1 3.6-1.4 5.8-1.4zm0 1c-1.9 0-3.5 1-4.8 3-1.2 2-1.9 5.3-1.9 9.8 0 4.6.6 7.8 1.9 9.8 1.2 2 2.8 3 4.8 3s3.5-1 4.8-3c1.2-2 1.9-5.3 1.9-9.8 0-4.6-.6-7.8-1.9-9.8s-2.9-3-4.8-3zm41.8-10.2v1c-1.2 0-2 .2-2.6.4a1.8 1.8 0 0 0-1.2 1.2c-.2.6-.3 1.5-.3 2.8v25.3c0 1.2.1 2.1.3 2.8a1.8 1.8 0 0 0 1.2 1.2c.6.2 1.5.3 2.6.3h3.7c2.1 0 3.8-.3 4.9-.9s1.9-1.6 2.4-3 .9-3.3 1.1-5.6h1.2l-.2 4.2.1 2.8.3 3.7-5.9-.1h-5.8-4.1-5.4l-5.4.1v-1c1.2-.1 2-.2 2.6-.4a1.8 1.8 0 0 0 1.2-1.2c.2-.6.3-1.5.3-2.8V15.9c0-1.3-.1-2.2-.3-2.8a1.8 1.8 0 0 0-1.2-1.2c-.6-.2-1.5-.3-2.6-.4v-1l2.8.1 3.7.1 3.5-.1 3.1-.1zM232.5 47c-2.2 0-3.8-.6-4.8-1.7s-1.5-2.6-1.5-4.4c0-1.4.3-2.6 1-3.5s1.6-1.7 2.7-2.3 2.2-1.1 3.4-1.5l3.4-1.3c1.1-.4 2-.9 2.7-1.4s1-1.2 1-1.9v-3.2c0-1.4-.2-2.5-.6-3.3a3.53 3.53 0 0 0-1.7-1.5c-.7-.3-1.5-.4-2.4-.4s-1.8.1-2.7.4c-1 .2-1.7.7-2.3 1.5.6.1 1.2.5 1.7 1s.7 1.2.7 2.1-.3 1.5-.8 2-1.2.7-2.1.7c-1 0-1.7-.3-2.2-.9s-.7-1.3-.7-2.1c0-.9.2-1.6.7-2.1.4-.5 1-1.1 1.7-1.5a14.04 14.04 0 0 1 3-1.4c1.2-.4 2.6-.6 4.2-.6 1.4 0 2.6.2 3.6.5s1.8.8 2.4 1.4c.9.8 1.5 1.8 1.7 3 .3 1.2.4 2.6.4 4.2V43c0 .8.1 1.4.4 1.8.2.4.6.6 1.2.6.5 0 .9-.1 1.2-.3.4-.2.7-.5 1-.8l.6.9-2 1.4c-.6.4-1.5.5-2.6.5-1.8 0-2.9-.5-3.5-1.4s-.9-2-.9-3.2c-1.1 1.8-2.3 3-3.7 3.6-1.2.6-2.7.9-4.2.9zm2.3-2c1 0 2-.3 3-.9s1.9-1.6 2.8-3v-10c-.5.7-1.3 1.3-2.4 1.8-1.1.4-2.2.9-3.3 1.5-1.1.5-2.1 1.2-2.9 2.1s-1.2 2.2-1.2 3.8.4 2.7 1.2 3.5c.7.8 1.6 1.2 2.8 1.2zM267 19.7c.9 0 1.7.2 2.4.6a4.63 4.63 0 0 1 1.6 1.5c.4.6.6 1.3.6 2 0 .9-.3 1.6-.8 2.2s-1.2 1-2.1 1c-.7 0-1.3-.2-1.9-.7s-.8-1.1-.8-2c0-.6.2-1.2.5-1.7.4-.5.8-.8 1.2-1.1-.2-.3-.6-.5-1.1-.5-1.4 0-2.7.5-3.7 1.6-1.1 1.1-1.9 2.4-2.5 3.9s-.9 2.9-.9 4.1v10.8c0 1.7.5 2.8 1.5 3.3 1 .6 2.3.8 4 .8v1.1c-.8 0-1.9-.1-3.3-.1l-4.5-.1-3.4.1c-1.1.1-2 .1-2.6.1v-1.1c1.4 0 2.4-.3 3-.8s.9-1.5.9-2.9v-16c0-1.5-.3-2.7-.8-3.4s-1.6-1.1-3.1-1.1v-1.1l3.2.2c1 0 1.9-.1 2.8-.2s1.7-.3 2.5-.5v6.4c.4-1 .9-2 1.6-3a9.9 9.9 0 0 1 2.5-2.5c.9-.6 2-.9 3.2-.9zM280.6 47c-2.2 0-3.8-.6-4.8-1.7s-1.5-2.6-1.5-4.4c0-1.4.3-2.6 1-3.5s1.6-1.7 2.7-2.3 2.2-1.1 3.4-1.5l3.4-1.3c1.1-.4 2-.9 2.7-1.4s1-1.2 1-1.9v-3.2c0-1.4-.2-2.5-.6-3.3a3.53 3.53 0 0 0-1.7-1.5c-.7-.3-1.5-.4-2.4-.4s-1.8.1-2.7.4c-1 .2-1.7.7-2.3 1.5.6.1 1.2.5 1.7 1s.7 1.2.7 2.1-.3 1.5-.8 2-1.2.7-2.1.7c-1 0-1.7-.3-2.2-.9s-.7-1.3-.7-2.1c0-.9.2-1.6.7-2.1.4-.5 1-1.1 1.7-1.5a14.04 14.04 0 0 1 3-1.4c1.2-.4 2.6-.6 4.2-.6 1.4 0 2.6.2 3.6.5s1.8.8 2.4 1.4c.9.8 1.5 1.8 1.7 3 .3 1.2.4 2.6.4 4.2V43c0 .8.1 1.4.4 1.8.2.4.6.6 1.2.6.5 0 .9-.1 1.2-.3.4-.2.7-.5 1-.8l.6.9-2 1.4c-.6.4-1.5.5-2.6.5-1.8 0-2.9-.5-3.5-1.4s-.9-2-.9-3.2c-1.1 1.8-2.3 3-3.7 3.6-1.2.6-2.7.9-4.2.9zm2.3-2c1 0 2-.3 3-.9s1.9-1.6 2.8-3v-10c-.5.7-1.3 1.3-2.4 1.8-1.1.4-2.2.9-3.3 1.5-1.1.5-2.1 1.2-2.9 2.1s-1.2 2.2-1.2 3.8.4 2.7 1.2 3.5c.6.8 1.6 1.2 2.8 1.2z"/><use xlink:href="#B" x="192.6"/><path d="M326.8 56.2v-.8c2.1-.1 3.7-1 4.7-2.7 1.1-1.7 1.6-4.1 1.6-7.1V25.9c0-1.5-.3-2.7-.8-3.4s-1.6-1.1-3.1-1.1v-1.1l3.2.2c1 0 1.9-.1 2.8-.2s1.7-.3 2.5-.5v21c0 2.6-.3 4.9-.8 7-.6 2.1-1.5 3.9-2.8 5.3-.9.9-1.9 1.7-3.1 2.2s-2.7.9-4.2.9z"/></g><path fill="#fa5c50" d="M334.3,0.2c2,0,3.8,0.7,5.3,2.2c1.5,1.5,2.2,3.2,2.2,5.3c0,2-0.7,3.8-2.2,5.3c-1.5,1.5-3.2,2.2-5.3,2.2   c-2,0-3.8-0.7-5.3-2.2c-1.5-1.5-2.2-3.2-2.2-5.3c0-2,0.7-3.8,2.2-5.3C330.5,0.9,332.3,0.2,334.3,0.2z"/><path fill="#000111" d="M350.1 47c-2.2 0-3.8-.6-4.8-1.7s-1.5-2.6-1.5-4.4c0-1.4.3-2.6 1-3.5s1.6-1.7 2.7-2.3 2.2-1.1 3.4-1.5l3.4-1.3c1.1-.4 2-.9 2.7-1.4s1-1.2 1-1.9v-3.2c0-1.4-.2-2.5-.6-3.3a3.53 3.53 0 0 0-1.7-1.5c-.7-.3-1.5-.4-2.4-.4s-1.8.1-2.7.4c-1 .2-1.7.7-2.3 1.5.6.1 1.2.5 1.7 1s.7 1.2.7 2.1-.3 1.5-.8 2-1.2.7-2.1.7c-1 0-1.7-.3-2.2-.9s-.7-1.3-.7-2.1c0-.9.2-1.6.7-2.1.4-.5 1-1.1 1.7-1.5a14.04 14.04 0 0 1 3-1.4c1.2-.4 2.6-.6 4.2-.6 1.4 0 2.6.2 3.6.5s1.8.8 2.4 1.4c.9.8 1.5 1.8 1.7 3 .3 1.2.4 2.6.4 4.2V43c0 .8.1 1.4.4 1.8.2.4.6.6 1.2.6.5 0 .9-.1 1.2-.3.4-.2.7-.5 1-.8l.6.9-2 1.4c-.6.4-1.5.5-2.6.5-1.8 0-2.9-.5-3.5-1.4s-.9-2-.9-3.2c-1.1 1.8-2.3 3-3.7 3.6a9.9 9.9 0 0 1-4.2.9zm2.2-2c1 0 2-.3 3-.9s1.9-1.6 2.8-3v-10c-.5.7-1.3 1.3-2.4 1.8-1.1.4-2.2.9-3.3 1.5-1.1.5-2.1 1.2-2.9 2.1s-1.2 2.2-1.2 3.8.4 2.7 1.2 3.5c.7.8 1.7 1.2 2.8 1.2z"/><defs ><path id="B" d="M123.7 19.7c1.3 0 2.4.2 3.2.5.9.3 1.6.8 2.2 1.4.6.7 1.1 1.5 1.4 2.5s.4 2.4.4 4.1v13.6c0 1.4.3 2.4.9 2.9s1.6.8 3 .8v1.1c-.6 0-1.5-.1-2.7-.1-1.2-.1-2.3-.1-3.5-.1l-3.3.1-2.4.1v-1.1c1.2 0 2.1-.3 2.6-.8s.8-1.5.8-2.9V27.2a12.92 12.92 0 0 0-.3-2.9c-.2-.9-.6-1.6-1.1-2.1-.6-.5-1.5-.8-2.7-.8-2.1 0-3.9.9-5.2 2.7s-2 4-2 6.6V42c0 1.4.3 2.4.8 2.9s1.4.8 2.6.8v1.1c-.5 0-1.4-.1-2.4-.1-1.1-.1-2.2-.1-3.3-.1l-3.5.1-2.7.1v-1.1c1.4 0 2.4-.3 3-.8s.9-1.5.9-2.9V26c0-1.5-.3-2.7-.8-3.4s-1.6-1.1-3.1-1.1v-1.1l3.2.2c1 0 1.9-.1 2.8-.2s1.7-.3 2.5-.5v6c.9-2.3 2.1-3.9 3.7-4.8 1.6-1 3.3-1.4 5-1.4z"/></defs></svg>